<?xml version="1.0" encoding="utf-8"?>
<!DOCTYPE svg PUBLIC "-//W3C//DTD SVG 1.1//EN" "http://www.w3.org/Graphics/SVG/1.1/DTD/svg11.dtd">
<svg version="1.1" xmlns="http://www.w3.org/2000/svg" xmlns:xlink="http://www.w3.org/1999/xlink" x="0px" y="0px" viewBox="0 0 1000 1000" enable-background="new 0 0 1000 1000" xml:space="preserve">
<g><path d="M970.7,256.2c0,0-139.3,140.4-153.5,154.8c-14.2,14.3-62.3,12.8-62.3,12.8s-127.2-14.4-145.6-32.7c-18.2-18.3-30.8-151.5-30.8-151.5s-3.6-37,14.8-55.4c18.3-18.3,154.3-154.4,154.3-154.4S765,10.1,739.7,10c-81.6-0.3-247.2,1.6-327.5,82l-16.7,16.5c-92.7,93.4-100.9,233.2-30.1,335.9L54.4,719.8c-37.4,37.4-77.8,147.8,0,225.8c77.8,77.9,187.9,37.4,225.1-0.1c0,0,222.3-250.4,276.3-309.8c102.3,73.4,243.2,66.2,337-28l16.5-16.5c77.8-78.1,80.3-242.4,80.6-325.6C990.2,239.1,970.7,256.2,970.7,256.2z M190.8,901.4c-51,0-92.3-41.2-92.3-92.2c0-50.9,41.3-92.2,92.3-92.2s92.1,41.4,92.1,92.2C282.9,860.2,241.8,901.4,190.8,901.4z"/></g>
</svg>